<svg width="925" height="117" viewBox="0 0 925 117" fill="none" xmlns="http://www.w3.org/2000/svg">
<path d="M52.6082 21.8546C53.2735 21.8546 53.9271 22.0253 54.4982 22.3433C55.0693 22.6671 55.5463 23.1263 55.8701 23.6856L85.5686 74.4757C85.8806 75.0115 86.0455 75.612 86.0455 76.2301C86.0455 76.8424 85.8806 77.4488 85.5686 77.9846L76.0655 94.2395C75.7417 94.7929 75.2707 95.258 74.6936 95.5818C74.1225 95.9056 73.469 96.0764 72.8036 96.0764H13.236C12.5706 96.0764 11.9171 95.9056 11.3459 95.5818C10.7748 95.258 10.2979 94.7929 9.97407 94.2395L0.476919 77.9846C0.164861 77.4488 0 76.8424 0 76.2301C0 75.6178 0.164861 75.0115 0.476919 74.4757L30.1695 23.6856C30.4933 23.1322 30.9702 22.6671 31.5414 22.3433C32.1125 22.0195 32.766 21.8546 33.4314 21.8546H52.6082ZM22.3798 77.961C22.3798 77.961 34.45 69.8482 43.0168 69.8482C51.5837 69.8482 63.6539 77.961 63.6539 77.961L43.0168 42.1189L22.3798 77.961Z" fill="url(#paint0_linear_5_25)"/>
<path d="M441.573 54.0584C439.713 50.9087 437.104 48.4301 433.748 46.6227C430.445 44.8153 426.648 43.9087 422.355 43.9087C418.063 43.9087 414.348 44.8153 411.039 46.6227C407.736 48.4301 405.122 50.9381 403.214 54.1409C401.3 57.2906 400.346 60.9349 400.346 65.0678C400.346 69.2007 401.3 72.792 403.214 75.9947C405.127 79.1974 407.736 81.729 411.039 83.5894C414.348 85.3968 418.116 86.3034 422.355 86.3034C426.595 86.3034 430.439 85.3968 433.748 83.5894C437.104 81.729 439.713 79.1974 441.573 75.9947C443.487 72.792 444.441 69.1477 444.441 65.0678C444.441 60.9879 443.487 57.2141 441.573 54.0643V54.0584ZM433.048 71.956C432.017 73.9165 430.569 75.4177 428.708 76.448C426.848 77.4783 424.734 77.9964 422.355 77.9964C419.977 77.9964 417.939 77.4783 416.079 76.448C414.271 75.4177 412.823 73.9165 411.74 71.956C410.656 69.9955 410.114 67.6935 410.114 65.0619C410.114 62.4302 410.656 60.0753 411.74 58.1678C412.823 56.2073 414.271 54.7061 416.079 53.6758C417.939 52.6455 420.059 52.1274 422.432 52.1274C424.805 52.1274 426.848 52.6455 428.708 53.6758C430.569 54.7061 432.017 56.2073 433.048 58.1678C434.131 60.0812 434.673 62.3773 434.673 65.0619C434.673 67.7465 434.131 69.9955 433.048 71.956Z" fill="black"/>
<path d="M358.16 44.9154C359.914 43.2081 362.01 41.8952 364.436 40.965C366.862 40.0348 369.5 39.5697 372.338 39.5697C375.176 39.5697 377.967 40.0878 380.398 41.1181C382.877 42.1013 385.179 43.6496 387.293 45.7691L393.646 39.5697C391.114 36.679 387.988 34.483 384.273 32.9818C380.604 31.4864 376.471 30.7328 371.873 30.7328C367.639 30.7328 363.736 31.4275 360.173 32.8228C356.611 34.1651 353.485 36.102 350.8 38.6336C348.168 41.1122 346.125 44.0559 344.677 47.4646C343.228 50.8734 342.504 54.5942 342.504 58.6211C342.504 62.6481 343.228 66.3689 344.677 69.7777C346.125 73.1864 348.162 76.1595 350.8 78.6911C353.432 81.1697 356.505 83.1066 360.02 84.5019C363.583 85.8442 367.486 86.5154 371.72 86.5154C375.541 86.5154 379.315 85.9443 383.036 84.8081C386.804 83.6188 390.113 81.8879 392.957 79.6154V57.9971H383.425V74.8584C382.318 75.5002 381.181 76.03 380.016 76.4363C377.537 77.2605 374.952 77.6785 372.267 77.6785C369.376 77.6785 366.738 77.2134 364.366 76.2832C361.987 75.353 359.92 74.0342 358.166 72.3328C356.411 70.5783 355.039 68.5354 354.056 66.2099C353.126 63.8844 352.66 61.3529 352.66 58.6153C352.66 55.8776 353.126 53.2695 354.056 50.944C355.039 48.6185 356.405 46.6051 358.166 44.8977L358.16 44.9154Z" fill="black"/>
<path d="M330.893 78.3084C329.085 78.3084 327.666 77.7668 326.63 76.6835C325.647 75.6002 325.158 74.0754 325.158 72.109V52.4276H336.239V44.6799H325.158V35.2248H315.473V44.6799H308.654V52.4276H315.473V72.3386C315.473 76.9367 316.715 80.422 319.194 82.8005C321.673 85.126 325.188 86.2858 329.733 86.2858C331.488 86.2858 333.195 86.0562 334.85 85.5911C336.504 85.126 337.9 84.4313 339.036 83.5011L336.322 76.607C334.873 77.7432 333.066 78.3143 330.899 78.3143L330.893 78.3084Z" fill="black"/>
<path d="M294.912 45.8456C292.327 44.5563 289.383 43.9087 286.08 43.9087C282.465 43.9087 279.262 44.6328 276.471 46.0811C274.628 47.0231 273.08 48.2476 271.82 49.7548V44.3797H262.599V86.533H272.285V64.8382C272.285 62.0476 272.75 59.7515 273.68 57.9441C274.664 56.0837 276.03 54.6884 277.79 53.7582C279.545 52.828 281.564 52.3629 283.837 52.3629C286.934 52.3629 289.336 53.2695 291.044 55.077C292.798 56.8844 293.676 59.622 293.676 63.2898V86.533H303.361V62.0476C303.361 57.8617 302.614 54.4529 301.112 51.8213C299.617 49.1366 297.55 47.1467 294.912 45.8574V45.8456Z" fill="black"/>
<path d="M244.753 46.5403C241.603 44.7859 238.012 43.9087 233.984 43.9087C229.957 43.9087 226.159 44.8153 222.903 46.6227C219.7 48.4301 217.169 50.9381 215.308 54.1409C213.5 57.2906 212.594 60.9349 212.594 65.0678C212.594 69.2007 213.524 72.792 215.384 75.9947C217.298 79.1974 219.959 81.729 223.368 83.5894C226.831 85.3968 230.858 86.3034 235.456 86.3034C239.071 86.3034 242.274 85.7324 245.065 84.5961C247.909 83.4069 250.258 81.729 252.119 79.5624L246.926 73.5985C245.477 75.1469 243.829 76.2832 241.968 77.0073C240.108 77.7315 238.017 78.0906 235.692 78.0906C233.007 78.0906 230.628 77.5725 228.562 76.5422C226.495 75.5119 224.893 74.0342 223.757 72.1267C223.039 70.9198 222.55 69.6069 222.285 68.1763H254.751C254.804 67.7112 254.827 67.2225 254.827 66.7045C254.88 66.1864 254.904 65.7213 254.904 65.3092C254.904 60.9702 253.997 57.1964 252.19 53.9937C250.382 50.791 247.903 48.3124 244.753 46.558V46.5403ZM222.203 61.7297C222.415 60.1813 222.85 58.7801 223.522 57.5438C224.552 55.6834 225.947 54.2351 227.708 53.2048C229.515 52.1745 231.606 51.6564 233.984 51.6564C236.363 51.6564 238.347 52.1745 240.108 53.2048C241.915 54.2351 243.334 55.6598 244.371 57.4672C245.101 58.7448 245.554 60.1695 245.742 61.7297H222.209H222.203Z" fill="black"/>
<path d="M195.595 49.9138C194.229 48.2594 192.604 46.9465 190.714 46.0046C187.923 44.6093 184.773 43.9146 181.258 43.9146C177.331 43.9146 173.769 44.7388 170.566 46.3931C167.416 48.0475 164.908 50.373 163.047 53.3637C161.24 56.3604 160.333 59.8457 160.333 63.8256C160.333 67.8054 161.234 71.3672 163.047 74.3639C164.908 77.3606 167.41 79.7096 170.566 81.4169C173.769 83.0713 177.331 83.8955 181.258 83.8955C184.773 83.8955 187.923 83.2008 190.714 81.8055C192.392 80.9342 193.864 79.7861 195.13 78.3732V80.5633C195.13 84.7492 194.07 87.8754 191.951 89.9359C189.831 92.0554 186.499 93.1151 181.953 93.1151C179.109 93.1151 176.295 92.65 173.504 91.7198C170.766 90.8426 168.493 89.6533 166.686 88.1579L162.347 95.4406C164.672 97.354 167.64 98.7964 171.261 99.7796C174.929 100.81 178.674 101.328 182.495 101.328C189.725 101.328 195.254 99.5441 199.075 95.9822C202.896 92.4675 204.81 86.9687 204.81 79.48V44.3797H195.59V49.9196L195.595 49.9138ZM193.658 70.019C192.622 71.7735 191.15 73.1688 189.242 74.2049C187.329 75.1881 185.162 75.6768 182.73 75.6768C180.299 75.6768 178.108 75.1881 176.142 74.2049C174.228 73.1747 172.733 71.7794 171.649 70.019C170.613 68.2116 170.101 66.1452 170.101 63.8197C170.101 61.4942 170.619 59.4571 171.649 57.6968C172.733 55.8894 174.234 54.5177 176.142 53.5875C178.103 52.6043 180.299 52.1156 182.73 52.1156C185.162 52.1156 187.329 52.6043 189.242 53.5875C191.156 54.5177 192.628 55.8835 193.658 57.6968C194.742 59.4513 195.283 61.4942 195.283 63.8197C195.283 66.1452 194.742 68.2116 193.658 70.019Z" fill="black"/>
<path d="M125.3 31.5099L100.3 86.5213H110.686L116.456 73.1923H143.965L149.758 86.5213H160.298L135.221 31.5099H125.3ZM119.883 65.2915L130.187 41.5007L140.532 65.2915H119.883Z" fill="black"/>
<path d="M477.919 86V38.186H459.199V31.4H504.361V38.186H485.641V86H477.919ZM515.91 86L500.544 44.66H507.642L521.292 82.1H517.938L532.134 44.66H538.452L552.336 82.1H549.06L563.022 44.66H569.73L554.286 86H547.11L534.084 51.836H536.268L523.086 86H515.91ZM575.328 86V44.66H582.816V86H575.328ZM579.072 36.704C577.616 36.704 576.394 36.236 575.406 35.3C574.47 34.364 574.002 33.22 574.002 31.868C574.002 30.464 574.47 29.294 575.406 28.358C576.394 27.422 577.616 26.954 579.072 26.954C580.528 26.954 581.724 27.422 582.66 28.358C583.648 29.242 584.142 30.36 584.142 31.712C584.142 33.116 583.674 34.312 582.738 35.3C581.802 36.236 580.58 36.704 579.072 36.704ZM617.188 44.27C620.568 44.27 623.532 44.92 626.08 46.22C628.68 47.52 630.708 49.496 632.164 52.148C633.62 54.8 634.348 58.154 634.348 62.21V86H626.86V63.068C626.86 59.064 625.872 56.048 623.896 54.02C621.972 51.992 619.242 50.978 615.706 50.978C613.054 50.978 610.74 51.498 608.764 52.538C606.788 53.578 605.254 55.112 604.162 57.14C603.122 59.168 602.602 61.69 602.602 64.706V86H595.114V44.66H602.29V55.814L601.12 52.85C602.472 50.146 604.552 48.04 607.36 46.532C610.168 45.024 613.444 44.27 617.188 44.27ZM682.157 86.624C677.997 86.624 674.019 86 670.223 84.752C666.427 83.452 663.437 81.788 661.253 79.76L664.139 73.676C666.219 75.496 668.871 77.004 672.095 78.2C675.319 79.396 678.673 79.994 682.157 79.994C685.329 79.994 687.903 79.63 689.879 78.902C691.855 78.174 693.311 77.186 694.247 75.938C695.183 74.638 695.651 73.182 695.651 71.57C695.651 69.698 695.027 68.19 693.779 67.046C692.583 65.902 690.997 64.992 689.021 64.316C687.097 63.588 684.965 62.964 682.625 62.444C680.285 61.924 677.919 61.326 675.527 60.65C673.187 59.922 671.029 59.012 669.053 57.92C667.129 56.828 665.569 55.372 664.373 53.552C663.177 51.68 662.579 49.288 662.579 46.376C662.579 43.568 663.307 40.994 664.763 38.654C666.271 36.262 668.559 34.364 671.627 32.96C674.747 31.504 678.699 30.776 683.483 30.776C686.655 30.776 689.801 31.192 692.921 32.024C696.041 32.856 698.745 34.052 701.033 35.612L698.459 41.852C696.119 40.292 693.649 39.174 691.049 38.498C688.449 37.77 685.927 37.406 683.483 37.406C680.415 37.406 677.893 37.796 675.917 38.576C673.941 39.356 672.485 40.396 671.549 41.696C670.665 42.996 670.223 44.452 670.223 46.064C670.223 47.988 670.821 49.522 672.017 50.666C673.265 51.81 674.851 52.72 676.775 53.396C678.751 54.072 680.909 54.696 683.249 55.268C685.589 55.788 687.929 56.386 690.269 57.062C692.661 57.738 694.819 58.622 696.743 59.714C698.719 60.806 700.305 62.262 701.501 64.082C702.697 65.902 703.295 68.242 703.295 71.102C703.295 73.858 702.541 76.432 701.033 78.824C699.525 81.164 697.185 83.062 694.013 84.518C690.893 85.922 686.941 86.624 682.157 86.624ZM728.992 86.468C725.456 86.468 722.336 85.818 719.632 84.518C716.98 83.218 714.9 81.242 713.392 78.59C711.936 75.886 711.208 72.506 711.208 68.45V44.66H718.696V67.592C718.696 71.648 719.658 74.69 721.582 76.718C723.558 78.746 726.314 79.76 729.85 79.76C732.45 79.76 734.712 79.24 736.636 78.2C738.56 77.108 740.042 75.548 741.082 73.52C742.122 71.44 742.642 68.944 742.642 66.032V44.66H750.13V86H743.032V74.846L744.202 77.81C742.85 80.566 740.822 82.698 738.118 84.206C735.414 85.714 732.372 86.468 728.992 86.468ZM762.385 86V44.66H769.561V55.892L768.859 53.084C770.003 50.224 771.927 48.04 774.631 46.532C777.335 45.024 780.663 44.27 784.615 44.27V51.524C784.303 51.472 783.991 51.446 783.679 51.446C783.419 51.446 783.159 51.446 782.899 51.446C778.895 51.446 775.723 52.642 773.383 55.034C771.043 57.426 769.873 60.884 769.873 65.408V86H762.385ZM804.362 86L786.266 44.66H794.066L810.134 82.1H806.39L822.77 44.66H830.102L812.006 86H804.362ZM852.356 86.468C847.936 86.468 844.036 85.558 840.656 83.738C837.328 81.918 834.728 79.422 832.856 76.25C831.036 73.078 830.126 69.438 830.126 65.33C830.126 61.222 831.01 57.582 832.778 54.41C834.598 51.238 837.068 48.768 840.188 47C843.36 45.18 846.922 44.27 850.874 44.27C854.878 44.27 858.414 45.154 861.482 46.922C864.55 48.69 866.942 51.186 868.658 54.41C870.426 57.582 871.31 61.3 871.31 65.564C871.31 65.876 871.284 66.24 871.232 66.656C871.232 67.072 871.206 67.462 871.154 67.826H835.976V62.444H867.254L864.212 64.316C864.264 61.664 863.718 59.298 862.574 57.218C861.43 55.138 859.844 53.526 857.816 52.382C855.84 51.186 853.526 50.588 850.874 50.588C848.274 50.588 845.96 51.186 843.932 52.382C841.904 53.526 840.318 55.164 839.174 57.296C838.03 59.376 837.458 61.768 837.458 64.472V65.72C837.458 68.476 838.082 70.946 839.33 73.13C840.63 75.262 842.424 76.926 844.712 78.122C847 79.318 849.626 79.916 852.59 79.916C855.034 79.916 857.244 79.5 859.22 78.668C861.248 77.836 863.016 76.588 864.524 74.924L868.658 79.76C866.786 81.944 864.446 83.608 861.638 84.752C858.882 85.896 855.788 86.468 852.356 86.468ZM880.74 101.6C878.764 101.6 876.84 101.262 874.968 100.586C873.096 99.962 871.484 99.026 870.132 97.778L873.33 92.162C874.37 93.15 875.514 93.904 876.762 94.424C878.01 94.944 879.336 95.204 880.74 95.204C882.56 95.204 884.068 94.736 885.264 93.8C886.46 92.864 887.578 91.2 888.618 88.808L891.192 83.114L891.972 82.178L908.196 44.66H915.528L895.482 90.134C894.286 93.046 892.934 95.334 891.426 96.998C889.97 98.662 888.358 99.832 886.59 100.508C884.822 101.236 882.872 101.6 880.74 101.6ZM890.568 87.326L871.692 44.66H879.492L895.56 81.476L890.568 87.326Z" fill="#1C398E"/>
<defs>
<linearGradient id="paint0_linear_5_25" x1="43.0227" y1="21.8546" x2="43.0227" y2="96.0705" gradientUnits="userSpaceOnUse">
<stop stop-color="#003EC3"/>
<stop offset="1" stop-color="#0091FF"/>
</linearGradient>
</defs>
</svg>
